REM DIRINDEX 1\2,1\3,1\4,1\5
REM DIRNAME cjc093,folder01,folder02,folder03,folder04
TITLE ""
FILE "Round-03-060-061.mp3" MP3
  TRACK 01 AUDIO
    TITLE "0:"
    INDEX 01 00:00:00
  TRACK 02 AUDIO
    TITLE "2:cjc093_0701"
    INDEX 01 00:00:01
  TRACK 03 AUDIO
    TITLE "0:"
    INDEX 01 00:01:01
  TRACK 04 AUDIO
    TITLE "3:cjc093_0702"
    INDEX 01 00:01:32
  TRACK 05 AUDIO
    TITLE "0:"
    INDEX 01 00:02:67
  TRACK 06 AUDIO
    TITLE "4:cjc093_0703"
    INDEX 01 00:03:29
  TRACK 07 AUDIO
    TITLE "0:"
    INDEX 01 00:06:10
  TRACK 08 AUDIO
    TITLE "3:cjc093_0704"
    INDEX 01 00:07:45
  TRACK 09 AUDIO
    TITLE "0:"
    INDEX 01 00:09:08
  TRACK 10 AUDIO
    TITLE "4:cjc093_0705"
    INDEX 01 00:09:40
  TRACK 11 AUDIO
    TITLE "0:"
    INDEX 01 00:12:44
  TRACK 12 AUDIO
    TITLE "2:cjc093_0706"
    INDEX 01 00:13:55
  TRACK 13 AUDIO
    TITLE "0:"
    INDEX 01 00:14:64
  TRACK 14 AUDIO
    TITLE "3:cjc093_0707"
    INDEX 01 00:15:25
  TRACK 15 AUDIO
    TITLE "0:"
    INDEX 01 00:17:16
  TRACK 16 AUDIO
    TITLE "4:cjc093_0708"
    INDEX 01 00:17:53
  TRACK 17 AUDIO
    TITLE "0:"
    INDEX 01 00:19:52
  TRACK 18 AUDIO
    TITLE "3:cjc093_0709"
    INDEX 01 00:20:61
  TRACK 19 AUDIO
    TITLE "0:"
    INDEX 01 00:22:23
  TRACK 20 AUDIO
    TITLE "4:cjc093_0710"
    INDEX 01 00:22:64
  TRACK 21 AUDIO
    TITLE "0:"
    INDEX 01 00:26:34
  TRACK 22 AUDIO
    TITLE "3:cjc093_0711"
    INDEX 01 00:27:49
  TRACK 23 AUDIO
    TITLE "0:"
    INDEX 01 00:28:70
  TRACK 24 AUDIO
    TITLE "4:cjc093_0712"
    INDEX 01 00:29:29
  TRACK 25 AUDIO
    TITLE "0:"
    INDEX 01 00:32:05
  TRACK 26 AUDIO
    TITLE "2:cjc093_0713"
    INDEX 01 00:33:19
  TRACK 27 AUDIO
    TITLE "0:"
    INDEX 01 00:34:14
  TRACK 28 AUDIO
    TITLE "3:cjc093_0714"
    INDEX 01 00:34:69
  TRACK 29 AUDIO
    TITLE "0:"
    INDEX 01 00:36:25
  TRACK 30 AUDIO
    TITLE "4:cjc093_0715"
    INDEX 01 00:36:40
  TRACK 31 AUDIO
    TITLE "0:"
    INDEX 01 00:39:03
  TRACK 32 AUDIO
    TITLE "3:cjc093_0716"
    INDEX 01 00:39:60
  TRACK 33 AUDIO
    TITLE "0:"
    INDEX 01 00:41:14
  TRACK 34 AUDIO
    TITLE "4:cjc093_0717"
    INDEX 01 00:41:57
  TRACK 35 AUDIO
    TITLE "0:"
    INDEX 01 00:46:11
  TRACK 36 AUDIO
    TITLE "2:cjc093_0718"
    INDEX 01 00:47:21
  TRACK 37 AUDIO
    TITLE "0:"
    INDEX 01 00:48:44
  TRACK 38 AUDIO
    TITLE "3:cjc093_0719"
    INDEX 01 00:49:06
  TRACK 39 AUDIO
    TITLE "0:"
    INDEX 01 00:50:37
  TRACK 40 AUDIO
    TITLE "4:cjc093_0720"
    INDEX 01 00:50:68
  TRACK 41 AUDIO
    TITLE "0:"
    INDEX 01 00:53:47
  TRACK 42 AUDIO
    TITLE "2:cjc093_0721"
    INDEX 01 00:54:54
  TRACK 43 AUDIO
    TITLE "0:"
    INDEX 01 00:55:55
  TRACK 44 AUDIO
    TITLE "3:cjc093_0722"
    INDEX 01 00:56:29
  TRACK 45 AUDIO
    TITLE "0:"
    INDEX 01 00:57:70
  TRACK 46 AUDIO
    TITLE "4:cjc093_0723"
    INDEX 01 00:58:20
  TRACK 47 AUDIO
    TITLE "0:"
    INDEX 01 01:00:64
  TRACK 48 AUDIO
    TITLE "3:cjc093_0724"
    INDEX 01 01:02:01
  TRACK 49 AUDIO
    TITLE "0:"
    INDEX 01 01:03:55
  TRACK 50 AUDIO
    TITLE "4:cjc093_0725"
    INDEX 01 01:04:21
  TRACK 51 AUDIO
    TITLE "0:"
    INDEX 01 01:07:55
  TRACK 52 AUDIO
    TITLE "3:cjc093_0726"
    INDEX 01 01:08:66
  TRACK 53 AUDIO
    TITLE "0:"
    INDEX 01 01:11:05
  TRACK 54 AUDIO
    TITLE "4:cjc093_0727"
    INDEX 01 01:11:31
  TRACK 55 AUDIO
    TITLE "0:"
    INDEX 01 01:14:17
  TRACK 56 AUDIO
    TITLE "2:cjc093_0728"
    INDEX 01 01:15:31
  TRACK 57 AUDIO
    TITLE "0:"
    INDEX 01 01:16:38
  TRACK 58 AUDIO
    TITLE "3:cjc093_0729"
    INDEX 01 01:17:00
  TRACK 59 AUDIO
    TITLE "0:"
    INDEX 01 01:18:07
  TRACK 60 AUDIO
    TITLE "4:cjc093_0730"
    INDEX 01 01:18:47
  TRACK 61 AUDIO
    TITLE "0:"
    INDEX 01 01:20:59
  TRACK 62 AUDIO
    TITLE "3:cjc093_0731"
    INDEX 01 01:21:69
  TRACK 63 AUDIO
    TITLE "0:"
    INDEX 01 01:23:07
  TRACK 64 AUDIO
    TITLE "4:cjc093_0732"
    INDEX 01 01:23:40
  TRACK 65 AUDIO
    TITLE "0:"
    INDEX 01 01:25:64
  TRACK 66 AUDIO
    TITLE "2:cjc093_0733"
    INDEX 01 01:27:03
  TRACK 67 AUDIO
    TITLE "0:"
    INDEX 01 01:28:08
  TRACK 68 AUDIO
    TITLE "2:cjc093_0734"
    INDEX 01 01:28:53
  TRACK 69 AUDIO
    TITLE "0:"
    INDEX 01 01:30:40
  TRACK 70 AUDIO
    TITLE "3:cjc093_0735"
    INDEX 01 01:31:06
  TRACK 71 AUDIO
    TITLE "0:"
    INDEX 01 01:32:55
  TRACK 72 AUDIO
    TITLE "4:cjc093_0736"
    INDEX 01 01:33:13
  TRACK 73 AUDIO
    TITLE "0:"
    INDEX 01 01:35:35
